<svg width="103" height="14" viewBox="0 0 103 14" fill="none" xmlns="http://www.w3.org/2000/svg">
<path d="M14.6654 14H10.0268L6.22305 9.13867L4.92422 14H0.285545L4.01504 0.0839844H8.65371L7.41055 4.72266L14.6654 14ZM8.10635 4.31445L13.7562 0.0839844H18.3949L9.8041 6.51318L8.10635 4.31445ZM27.0714 7.04199L28.0641 3.33105C28.1012 3.20117 28.1197 3.08366 28.1197 2.97852C28.1197 2.59505 27.8754 2.40332 27.3868 2.40332H23.6759L20.568 14H15.9293L19.6588 0.0839844H31.2555C32.4739 0.0839844 33.0831 0.563314 33.0831 1.52197C33.0831 1.78174 33.0398 2.07552 32.9532 2.40332L31.7101 7.05127C31.2895 8.59131 30.3092 9.36133 28.7691 9.36133H28.6114L29.8453 14H25.2066L23.9728 9.36133H22.7389L23.3604 7.04199H27.0714ZM31.573 14L35.3025 0.0839844H39.9412L36.2117 14H31.573ZM41.873 7.96045C40.6546 7.96045 40.0454 7.47803 40.0454 6.51318C40.0454 6.2596 40.0887 5.97201 40.1753 5.65039L41.0474 2.40332C41.4618 0.857096 42.5967 0.0839844 44.4521 0.0839844H55.585L54.9634 2.40332H45.686L45.0645 4.71338C45.0273 4.84326 45.0088 4.96077 45.0088 5.06592C45.0088 5.44938 45.25 5.64111 45.7324 5.64111H51.772C52.9904 5.64111 53.5996 6.12663 53.5996 7.09766C53.5996 7.34505 53.5594 7.62956 53.479 7.95117L52.4771 11.6714C52.0627 13.2238 51.0824 14 49.5361 14H37.9395L38.561 11.6807H47.8384L48.5898 8.88818C48.6208 8.7583 48.6362 8.64388 48.6362 8.54492C48.6362 8.15527 48.395 7.96045 47.9126 7.96045H41.873ZM67.9631 14H63.3244L59.5207 9.13867L58.2219 14H53.5832L57.3127 0.0839844H61.9514L60.7082 4.72266L67.9631 14ZM61.404 4.31445L67.0539 0.0839844H71.6926L63.1018 6.51318L61.404 4.31445ZM73.1605 7.96045C71.9421 7.96045 71.3329 7.47803 71.3329 6.51318C71.3329 6.2596 71.3762 5.97201 71.4628 5.65039L72.3349 2.40332C72.7492 0.857096 73.8842 0.0839844 75.7396 0.0839844H86.8725L86.2509 2.40332H76.9735L76.352 4.71338C76.3148 4.84326 76.2963 4.96077 76.2963 5.06592C76.2963 5.44938 76.5375 5.64111 77.0199 5.64111H83.0595C84.2779 5.64111 84.8871 6.12663 84.8871 7.09766C84.8871 7.34505 84.8469 7.62956 84.7665 7.95117L83.7645 11.6714C83.3502 13.2238 82.3699 14 80.8236 14H69.227L69.8485 11.6807H79.1259L79.8773 8.88818C79.9083 8.7583 79.9237 8.64388 79.9237 8.54492C79.9237 8.15527 79.6825 7.96045 79.2001 7.96045H73.1605ZM95.1778 3.24756L98.3414 0.0839844H102.98L96.6437 6.41113L95.1778 3.24756ZM91.3741 7.04199L88.1363 0.0839844H92.775L96.0128 7.04199L94.148 14H89.5094L91.3741 7.04199Z" fill="black"/>
</svg>
